# xmcd
#
# Track frame offsets:
#	150
#	22022
#	45132
#	62812
#	83870
#	103522
#	123562
#	141480
#	161142
#	179152
#
# Disc length: 2646 seconds
#
# Revision: 1
# Processed by: cddbd v1.5.2PL0 Copyright (c) Steve Scherf et al.
# Submitted via: EasyCDDAExtractor 15.3.0.1
#
DISCID=8d0a540a
DTITLE=Noelia
DYEAR=1999
DGENRE=Latin
TTITLE0=Tu
TTITLE1=Demasiado Amor
TTITLE2=Candela
TTITLE3=Te Amo
TTITLE4=Yo No Lo Entiendo
TTITLE5=Te Odio
TTITLE6=Hombres
TTITLE7=Morir De Amor
TTITLE8=Jurame
TTITLE9=Toco La Luz
EXTD=YEAR: 2000
EXTT0=
EXTT1=
EXTT2=
EXTT3=
EXTT4=
EXTT5=
EXTT6=
EXTT7=
EXTT8=
EXTT9=
PLAYORDER=
